<?xml version="1.0" standalone="no"?>
<!DOCTYPE svg PUBLIC "-//W3C//DTD SVG 20010904//EN"
 "http://www.w3.org/TR/2001/REC-SVG-20010904/DTD/svg10.dtd">
<svg version="1.0" xmlns="http://www.w3.org/2000/svg"
 width="2308.000000pt" height="1093.000000pt" viewBox="0 0 2308.000000 1093.000000"
 preserveAspectRatio="xMidYMid meet">

<g transform="translate(0.000000,1093.000000) scale(0.100000,-0.100000)"
fill="#000000" stroke="none">
<path d="M0 5465 l0 -5465 11540 0 11540 0 0 5465 0 5465 -11540 0 -11540 0 0
-5465z m14085 2821 c604 -97 933 -362 1060 -851 24 -94 50 -244 43 -251 -5 -4
-1003 -64 -1069 -64 l-35 0 -17 72 c-52 216 -185 350 -392 393 -131 28 -291
13 -383 -34 -85 -44 -152 -144 -152 -228 0 -65 62 -149 139 -188 64 -32 172
-64 354 -105 652 -147 999 -267 1235 -429 146 -100 254 -218 326 -355 l36 -68
22 53 c12 30 54 119 94 199 354 710 1030 1282 1813 1534 285 92 526 129 836
130 300 1 494 -28 743 -110 410 -134 760 -399 984 -744 158 -242 254 -516 289
-820 16 -146 6 -482 -20 -620 -68 -368 -196 -687 -406 -1010 -204 -314 -511
-627 -833 -848 l-103 -71 48 -6 c643 -88 1105 -401 1352 -915 l51 -105 0 488
0 487 585 0 585 0 2 -1402 3 -1403 898 -3 897 -2 0 -465 0 -465 -1485 0 -1485
0 0 488 -1 487 -50 -104 c-222 -466 -634 -778 -1169 -885 -185 -37 -301 -47
-546 -47 -304 0 -493 20 -719 77 -353 89 -662 290 -876 569 -254 330 -379 755
-379 1285 0 592 157 1055 473 1396 l56 61 -102 12 c-282 33 -572 127 -801 259
-458 265 -776 708 -878 1221 l-22 113 -19 -23 c-233 -294 -547 -459 -997 -524
-157 -23 -517 -31 -721 -16 -605 45 -933 195 -1179 539 -144 201 -260 522
-260 721 l0 47 523 32 c287 18 536 35 554 38 31 5 32 4 43 -53 21 -111 69
-249 108 -309 80 -122 203 -210 352 -250 87 -23 262 -24 349 -1 182 49 298
165 327 329 11 64 -27 167 -85 230 -100 108 -230 161 -665 268 -440 108 -707
210 -915 347 -111 74 -264 227 -316 317 -104 181 -130 278 -129 496 0 200 19
293 94 446 187 384 557 595 1145 654 145 14 673 5 790 -14z m-11455 -55 c434
-48 659 -151 829 -381 150 -202 207 -404 198 -700 -5 -181 -20 -257 -78 -396
-66 -159 -209 -333 -349 -425 -110 -73 -334 -169 -392 -169 -33 0 -19 -16 31
-34 75 -27 201 -102 249 -149 54 -53 195 -225 238 -292 47 -74 604 -1152 604
-1170 0 -13 -75 -15 -663 -15 l-664 0 -324 602 c-322 598 -385 709 -449 781
-66 75 -185 125 -322 134 l-88 6 0 -757 0 -756 -590 0 -590 0 0 1871 0 1871
1128 -5 c758 -3 1161 -8 1232 -16z m-518 -4366 c244 -28 408 -73 583 -160 137
-68 252 -157 338 -265 62 -77 139 -212 165 -289 l12 -34 62 89 c135 190 340
362 563 473 289 144 574 201 1000 201 417 0 705 -57 968 -192 306 -157 550
-451 706 -853 23 -57 41 -109 41 -117 0 -9 -151 -46 -515 -127 -284 -62 -517
-112 -519 -110 -2 2 -18 41 -35 85 -96 250 -287 401 -548 434 -74 10 -197 0
-274 -20 -238 -64 -421 -264 -493 -540 -41 -154 -51 -257 -50 -500 1 -431 66
-686 216 -845 72 -77 145 -124 253 -161 74 -26 92 -28 230 -28 166 -1 232 12
340 65 116 57 203 153 283 314 37 74 91 226 107 303 4 21 12 32 24 32 15 0
814 -237 965 -287 l48 -15 -6 -46 c-10 -75 -82 -275 -141 -394 -140 -280 -300
-469 -520 -610 -280 -181 -563 -249 -1036 -249 -240 0 -383 10 -544 37 -278
47 -513 141 -696 279 -96 72 -244 221 -314 316 -26 35 -50 62 -53 59 -3 -3
-32 -43 -63 -90 -196 -290 -496 -477 -894 -558 -187 -38 -299 -47 -595 -46
-544 1 -882 75 -1157 250 -216 138 -424 451 -503 758 -29 114 -57 292 -48 302
5 5 1012 73 1086 74 25 0 32 -4 32 -19 0 -41 52 -220 83 -286 39 -81 128 -183
202 -230 157 -101 399 -127 581 -65 207 72 320 269 253 445 -60 160 -236 252
-684 354 -582 134 -915 282 -1140 505 -168 166 -258 368 -272 606 -18 321 91
591 327 813 205 193 503 308 895 346 156 15 597 13 737 -4z m11568 -9 c211
-34 444 -103 595 -178 476 -237 776 -651 880 -1215 28 -156 38 -282 37 -498
-1 -521 -97 -897 -311 -1217 -267 -399 -677 -634 -1241 -710 -144 -20 -603
-16 -760 6 -462 64 -769 205 -1045 481 -120 120 -208 240 -292 399 l-53 101 0
-472 0 -473 -585 0 -585 0 0 755 0 755 -625 0 -625 0 0 -755 0 -755 -580 0
-580 0 0 1870 0 1870 580 0 580 0 0 -655 0 -655 625 0 625 0 0 655 0 655 585
0 585 0 0 -472 0 -473 59 113 c261 498 726 796 1368 877 149 19 618 13 763 -9z"/>
<path d="M17890 8000 c0 -7 -23 -8 -65 -4 -45 5 -65 3 -65 -4 0 -8 -15 -10
-47 -5 -34 4 -44 3 -39 -6 6 -8 -4 -10 -35 -5 -32 5 -40 4 -35 -5 6 -9 -1 -11
-29 -5 -27 5 -36 4 -31 -4 5 -8 -3 -10 -25 -5 -24 4 -30 3 -25 -6 6 -8 1 -10
-18 -5 -17 4 -26 2 -26 -5 0 -7 -10 -9 -26 -5 -20 5 -25 4 -20 -5 6 -9 0 -10
-20 -5 -19 5 -25 4 -20 -5 6 -9 0 -10 -20 -5 -20 5 -25 4 -19 -6 5 -9 2 -10
-14 -5 -13 4 -21 2 -21 -5 0 -7 -8 -9 -21 -5 -16 5 -19 4 -14 -5 5 -9 1 -10
-15 -5 -16 5 -20 4 -15 -5 5 -9 2 -10 -14 -5 -12 4 -21 2 -21 -4 0 -6 -7 -8
-15 -5 -8 4 -15 1 -15 -5 0 -6 -7 -8 -15 -5 -8 4 -15 1 -15 -5 0 -6 -7 -8 -17
-4 -11 5 -14 3 -8 -6 6 -10 2 -11 -15 -6 -17 5 -21 4 -15 -6 6 -9 3 -11 -8 -6
-10 3 -17 2 -17 -3 0 -5 -7 -6 -17 -3 -12 5 -14 3 -8 -7 6 -10 4 -12 -8 -7
-10 3 -17 2 -17 -3 0 -5 -7 -6 -17 -3 -12 5 -14 3 -8 -7 6 -10 4 -12 -8 -7
-10 3 -17 2 -17 -3 0 -5 -7 -6 -17 -3 -10 4 -14 2 -10 -4 8 -12 -20 -26 -34
-17 -5 3 -9 0 -9 -6 0 -6 -4 -8 -10 -5 -5 3 -10 1 -10 -5 0 -6 -4 -9 -10 -5
-14 9 -131 -52 -160 -84 -14 -15 -21 -20 -16 -11 5 8 -7 -3 -26 -24 -19 -22
-39 -36 -45 -33 -6 4 -17 -1 -24 -11 -13 -16 -13 -16 6 -2 19 14 19 14 6 -3
-8 -10 -20 -16 -27 -13 -7 3 -18 -3 -26 -12 -12 -16 -11 -16 7 -2 19 14 19 14
6 -3 -8 -10 -20 -16 -27 -13 -7 3 -18 -3 -26 -12 -12 -16 -11 -16 7 -2 19 14
19 14 6 -3 -8 -10 -20 -16 -27 -13 -7 3 -18 -3 -26 -12 -11 -15 -11 -16 2 -7
9 6 7 2 -3 -7 -11 -10 -23 -16 -27 -13 -5 3 -12 0 -16 -6 -5 -8 -2 -10 7 -5 8
4 5 1 -5 -8 -10 -8 -22 -13 -27 -11 -4 3 -11 0 -15 -6 -5 -8 -2 -10 7 -5 8 4
5 1 -5 -8 -10 -8 -22 -13 -27 -11 -4 3 -11 0 -15 -6 -5 -8 -2 -10 7 -5 8 4 5
1 -5 -8 -10 -8 -22 -13 -27 -11 -4 3 -11 0 -15 -6 -4 -8 -3 -9 4 -5 25 15 11
-1 -20 -24 -18 -13 -28 -17 -23 -9 6 8 -1 3 -15 -11 -14 -14 -23 -21 -20 -15
3 6 -6 -1 -20 -15 -14 -14 -23 -21 -20 -15 3 6 -6 -1 -20 -15 -14 -14 -23 -21
-20 -15 3 6 -6 -1 -20 -15 -14 -14 -23 -21 -20 -15 3 6 -6 -1 -20 -15 -14 -14
-23 -21 -20 -15 3 6 -6 -1 -20 -15 -14 -14 -23 -21 -20 -15 3 6 -6 -1 -20 -15
-14 -14 -21 -19 -16 -10 6 8 -12 -9 -40 -38 -27 -29 -72 -74 -100 -100 -27
-26 -38 -38 -24 -27 14 11 6 0 -20 -25 -25 -25 -36 -38 -25 -30 27 20 -15 -32
-64 -79 -20 -19 -29 -30 -21 -25 9 5 4 -2 -10 -16 -14 -14 -19 -20 -10 -15 13
9 13 8 1 -10 -8 -11 -26 -31 -40 -44 -14 -13 -19 -20 -11 -16 8 4 4 -3 -10
-15 -14 -12 -18 -19 -10 -15 8 4 4 -3 -10 -15 -14 -12 -18 -19 -10 -15 8 4 4
-3 -10 -15 -14 -12 -19 -19 -12 -15 11 6 12 3 3 -14 -7 -11 -14 -21 -17 -21
-3 0 -2 5 2 12 4 7 3 8 -4 4 -6 -4 -9 -13 -6 -21 3 -7 -3 -18 -14 -24 -11 -6
-22 -18 -26 -26 -4 -10 -2 -14 5 -9 8 4 7 0 0 -15 -7 -11 -16 -21 -22 -21 -6
0 -7 -4 -4 -10 3 -5 2 -10 -4 -10 -6 0 -15 -10 -22 -21 -8 -15 -8 -19 0 -15 8
5 8 0 0 -18 -7 -14 -16 -23 -22 -19 -6 3 -7 1 -4 -5 9 -13 -2 -44 -13 -37 -10
6 -32 -44 -25 -56 4 -5 1 -9 -5 -9 -6 0 -9 -4 -6 -9 9 -14 -5 -42 -17 -34 -6
4 -8 0 -4 -10 3 -10 2 -17 -3 -17 -5 0 -6 -7 -3 -17 5 -12 3 -14 -7 -8 -10 6
-12 4 -7 -8 3 -10 2 -17 -3 -17 -5 0 -6 -7 -3 -17 5 -12 3 -14 -7 -8 -10 6
-12 4 -7 -8 4 -10 2 -17 -4 -17 -6 0 -9 -7 -5 -15 3 -8 1 -15 -4 -15 -5 0 -7
-7 -4 -15 4 -8 1 -15 -5 -15 -6 0 -8 -7 -5 -15 4 -8 1 -15 -5 -15 -6 0 -8 -7
-5 -15 4 -8 1 -15 -6 -15 -7 0 -10 -7 -6 -15 3 -8 1 -15 -5 -15 -6 0 -8 -9 -4
-21 5 -16 4 -19 -5 -14 -10 6 -11 1 -6 -19 5 -19 3 -26 -4 -21 -7 5 -9 -2 -4
-21 5 -21 4 -25 -6 -19 -10 6 -11 2 -6 -19 5 -20 4 -26 -5 -20 -9 5 -10 0 -5
-20 4 -16 2 -26 -5 -26 -7 0 -9 -9 -5 -25 4 -16 2 -25 -5 -25 -7 0 -9 -11 -5
-30 3 -19 1 -30 -6 -30 -7 0 -9 -13 -5 -35 4 -22 2 -35 -5 -35 -7 0 -8 -17 -4
-50 4 -32 3 -50 -4 -50 -6 0 -10 -55 -10 -155 0 -100 4 -155 10 -155 7 0 8
-18 4 -52 -5 -38 -4 -49 5 -44 8 6 10 -4 5 -35 -6 -32 -4 -40 6 -34 9 6 10 0
5 -24 -4 -20 -3 -31 4 -31 7 0 9 -10 5 -26 -5 -20 -4 -25 5 -20 8 6 10 0 5
-18 -3 -15 -2 -26 4 -26 6 0 8 -10 4 -22 -4 -15 -2 -19 7 -13 10 5 11 2 6 -14
-4 -13 -2 -21 5 -21 7 0 9 -8 5 -21 -5 -16 -4 -19 5 -14 9 5 10 1 5 -15 -5
-16 -4 -20 5 -15 9 5 10 1 5 -15 -5 -17 -4 -21 6 -15 9 6 11 3 6 -8 -3 -10 -2
-17 3 -17 5 0 6 -7 3 -17 -5 -12 -3 -14 7 -8 10 6 12 4 7 -8 -8 -22 2 -49 16
-40 6 4 8 0 4 -10 -3 -10 -2 -17 4 -17 6 0 7 -4 4 -10 -3 -5 -1 -10 5 -10 6 0
8 -4 5 -10 -7 -12 32 -90 45 -90 5 0 17 -14 26 -31 11 -23 12 -29 2 -24 -7 4
-2 -2 11 -13 13 -10 21 -24 17 -30 -3 -6 -1 -14 5 -18 8 -5 9 -3 4 6 -6 9 -4
11 4 6 7 -5 10 -14 7 -22 -3 -7 0 -16 6 -20 7 -4 8 -3 4 4 -15 25 3 10 20 -15
17 -27 17 -28 -2 -14 -10 8 -2 -2 19 -22 21 -20 36 -40 33 -45 -3 -6 2 -16 12
-23 15 -12 16 -12 7 1 -5 9 -2 7 7 -3 10 -11 16 -23 13 -27 -3 -5 42 -50 100
-100 58 -51 105 -95 105 -98 0 -3 -15 7 -32 24 l-33 29 29 -32 c16 -18 32 -30
36 -28 5 3 16 -3 27 -13 10 -9 12 -12 3 -7 -13 9 -13 8 -1 -7 7 -10 17 -16 21
-13 4 2 16 -3 26 -11 10 -9 13 -12 5 -8 -9 5 -12 3 -7 -5 4 -6 12 -9 17 -5 5
3 24 -9 41 -28 17 -18 28 -26 24 -18 -4 8 2 4 14 -10 12 -14 19 -19 15 -12 -6
11 -3 12 14 3 11 -7 21 -14 21 -17 0 -3 -5 -2 -12 2 -7 4 -8 3 -4 -4 4 -6 13
-9 21 -6 8 4 18 -1 21 -10 4 -9 15 -21 26 -27 15 -8 19 -8 14 0 -5 8 0 8 18 0
14 -7 23 -16 20 -20 -3 -5 3 -6 12 -2 12 4 15 3 10 -5 -5 -8 -1 -10 10 -5 12
4 15 3 10 -5 -5 -8 -1 -10 10 -5 13 5 15 3 9 -7 -5 -8 -4 -11 3 -7 15 10 43
-3 35 -16 -4 -6 0 -8 10 -4 10 3 17 2 17 -4 0 -6 4 -8 9 -5 14 9 42 -5 34 -17
-4 -6 0 -8 10 -4 10 3 17 2 17 -3 0 -5 7 -7 15 -4 8 4 15 1 15 -5 0 -6 7 -8
17 -4 11 5 14 3 8 -6 -6 -10 -2 -11 15 -6 16 5 20 4 15 -5 -5 -9 -1 -10 15 -5
16 5 20 4 15 -5 -5 -9 -2 -10 14 -5 13 4 21 2 21 -5 0 -7 7 -10 15 -6 8 3 15
1 15 -5 0 -6 9 -8 20 -4 12 4 20 2 20 -5 0 -7 8 -9 20 -5 12 4 20 2 20 -5 0
-7 8 -9 20 -5 12 4 20 2 20 -5 0 -8 9 -10 25 -6 15 4 25 2 25 -5 0 -7 11 -8
31 -4 24 5 30 4 24 -5 -6 -10 1 -11 29 -6 25 5 36 3 36 -5 0 -8 12 -10 40 -5
27 4 40 3 40 -5 0 -8 19 -10 65 -5 42 4 65 3 65 -4 0 -6 42 -10 111 -10 76 0
108 3 104 11 -5 7 14 8 64 3 50 -4 71 -3 71 5 0 7 15 9 47 4 34 -4 44 -3 39 6
-6 8 4 10 35 5 32 -5 40 -4 35 5 -6 9 1 11 29 5 27 -5 36 -4 31 4 -5 8 3 10
25 5 24 -4 30 -3 25 6 -6 8 -1 10 18 5 17 -4 26 -2 26 5 0 7 10 9 26 5 20 -5
25 -4 20 5 -6 9 0 10 20 5 19 -5 25 -4 20 5 -6 9 0 10 20 5 20 -5 25 -4 19 6
-5 9 -2 10 14 5 13 -4 21 -2 21 5 0 7 8 9 21 5 16 -5 19 -4 14 5 -5 9 -1 10
15 5 16 -5 20 -4 15 5 -5 9 -2 10 14 5 12 -4 21 -2 21 4 0 6 7 8 15 5 8 -4 15
-1 15 5 0 6 7 8 15 5 8 -4 15 -1 15 5 0 6 7 8 17 4 11 -5 14 -3 8 6 -6 10 -2
11 15 6 17 -5 21 -4 15 6 -6 9 -3 11 8 6 10 -3 17 -2 17 3 0 5 7 6 17 3 11 -5
14 -3 8 6 -6 10 -2 11 15 6 14 -4 20 -3 16 3 -7 11 21 25 35 16 5 -3 9 -1 9 5
0 6 7 7 17 4 10 -4 14 -2 10 4 -8 12 20 26 34 17 5 -3 9 0 9 6 0 6 5 8 10 5 6
-3 10 -1 10 5 0 6 4 9 9 6 12 -8 42 4 36 13 -2 4 12 15 31 25 20 9 32 11 29 5
-4 -6 7 -3 24 5 17 9 31 21 31 27 0 6 5 7 10 4 6 -3 10 -2 10 4 0 6 14 18 31
27 23 11 29 12 23 2 -4 -7 4 -1 19 15 27 28 43 36 31 15 -4 -7 4 -1 19 15 27
28 43 36 32 15 -4 -7 3 -2 15 12 12 14 19 18 15 10 -4 -8 3 -4 15 10 12 14 19
18 15 10 -4 -8 3 -4 15 10 12 14 19 18 15 10 -4 -8 3 -4 15 10 12 14 19 18 15
10 -4 -8 3 -3 16 11 13 14 33 32 44 40 19 13 19 13 6 -6 -8 -11 1 -4 20 16 19
19 45 44 59 55 25 19 25 19 10 -1 -8 -12 1 -5 20 15 19 20 31 29 25 20 -5 -8
10 5 35 30 25 26 38 37 30 26 -9 -12 24 20 73 71 48 51 129 132 180 180 51 49
83 82 71 73 -11 -8 0 5 26 30 25 25 38 41 30 35 -9 -5 0 5 19 24 20 19 27 28
16 20 -13 -10 -11 -3 9 24 16 20 31 37 33 37 3 0 -1 -8 -8 -17 -13 -16 -12
-17 3 -4 10 7 15 18 11 24 -3 5 7 22 23 36 17 14 23 22 15 16 -10 -7 -9 -2 3
18 17 25 35 40 20 15 -4 -7 -3 -8 4 -4 6 4 9 13 6 20 -3 8 0 17 7 22 8 5 10 3
4 -6 -5 -8 -4 -11 3 -6 6 4 9 13 6 20 -3 8 0 17 7 22 8 5 10 3 4 -6 -5 -9 -4
-11 4 -6 6 4 8 12 5 18 -4 6 4 20 17 30 13 11 18 17 12 13 -22 -11 -14 5 15
32 15 15 21 23 14 18 -11 -6 -12 -3 -3 14 7 11 16 21 21 21 5 0 14 10 21 21 8
15 8 19 0 15 -8 -5 -8 0 0 18 7 14 16 23 20 20 5 -3 6 3 2 12 -4 12 -3 15 5
10 8 -5 10 -1 5 10 -4 12 -3 15 5 10 8 -5 10 -1 5 10 -4 12 -3 15 5 10 8 -5
10 -1 5 10 -5 13 -3 15 7 9 8 -5 11 -4 7 3 -9 13 2 44 13 37 10 -6 22 24 14
36 -3 5 0 9 6 9 6 0 9 4 6 9 -9 14 5 42 17 34 6 -4 8 0 4 10 -3 10 -2 17 3 17
5 0 6 7 3 17 -5 12 -3 14 7 8 10 -6 12 -4 7 8 -3 10 -2 17 3 17 5 0 7 7 4 15
-4 8 -1 15 5 15 6 0 8 7 4 17 -5 11 -3 14 6 8 10 -6 11 -2 6 15 -5 16 -4 20 5
15 9 -5 10 -1 5 15 -5 16 -4 20 5 15 9 -5 10 -1 5 15 -5 16 -4 20 5 15 9 -5
10 -2 5 14 -4 13 -2 21 5 21 7 0 9 8 5 21 -5 16 -4 19 5 14 9 -5 10 -2 5 14
-4 13 -2 21 5 21 7 0 9 8 5 20 -4 12 -2 20 5 20 7 0 9 8 5 20 -4 12 -2 20 5
20 8 0 10 9 6 26 -5 18 -3 24 5 19 8 -6 9 2 4 25 -5 25 -4 31 5 25 10 -6 11 1
6 30 -6 28 -4 35 5 29 9 -5 11 2 6 29 -4 23 -2 37 5 37 7 0 8 17 4 51 -4 32
-3 49 3 45 6 -4 9 59 9 169 0 107 -4 173 -9 169 -6 -3 -7 14 -3 47 5 39 4 50
-5 45 -9 -6 -11 1 -6 28 5 23 3 36 -4 36 -6 0 -8 12 -4 32 4 23 3 29 -6 24 -8
-6 -10 -1 -5 18 4 17 2 26 -5 26 -7 0 -9 10 -5 26 5 20 4 25 -6 19 -9 -5 -10
-2 -5 14 4 13 2 21 -5 21 -7 0 -9 8 -5 21 5 16 4 19 -5 14 -9 -5 -10 -2 -5 14
4 12 2 21 -4 21 -6 0 -8 7 -5 15 4 8 1 15 -5 15 -6 0 -8 7 -4 17 5 11 3 14 -6
8 -10 -6 -11 -2 -6 15 5 17 4 21 -6 15 -9 -6 -11 -3 -6 8 3 10 2 17 -3 17 -5
0 -6 7 -3 17 5 12 3 14 -7 8 -10 -6 -12 -4 -7 8 3 10 2 17 -4 17 -6 0 -8 4 -5
9 8 12 -4 42 -14 36 -11 -7 -22 24 -13 37 4 7 1 8 -7 3 -10 -6 -12 -4 -7 9 5
11 3 15 -5 10 -8 -5 -9 -2 -5 10 5 11 3 15 -5 10 -8 -5 -9 -2 -5 9 3 9 1 19
-5 23 -7 5 -8 2 -4 -7 4 -8 1 -5 -8 5 -8 10 -13 22 -11 27 3 4 0 11 -6 15 -8
4 -9 3 -5 -4 15 -25 -1 -11 -24 21 -13 17 -17 28 -9 22 8 -5 3 1 -11 15 -14
14 -21 23 -15 20 6 -3 -1 6 -15 20 -14 14 -21 23 -15 20 6 -3 -1 6 -15 20 -14
14 -21 23 -15 20 6 -3 -1 6 -15 20 -14 14 -21 23 -15 20 6 -3 -1 6 -15 20 -14
14 -21 23 -15 20 6 -3 -1 6 -15 20 -14 14 -21 23 -15 20 6 -3 -1 6 -15 20 -14
14 -21 23 -15 20 6 -3 -1 6 -15 19 -14 13 -19 20 -11 16 9 -6 12 -4 7 4 -4 6
-11 9 -15 6 -5 -2 -27 18 -50 45 -24 28 -47 48 -52 44 -6 -3 -29 14 -52 38
-23 23 -37 36 -32 28 6 -9 -1 -4 -14 10 -13 14 -20 18 -16 10 4 -8 -3 -4 -15
10 -12 14 -19 18 -15 10 4 -8 -3 -4 -15 10 -12 14 -19 18 -15 10 4 -8 -3 -4
-15 10 -12 14 -19 19 -15 13 11 -22 -5 -14 -32 15 -15 15 -23 21 -19 14 5 -8
-8 -5 -33 7 -23 12 -41 26 -41 32 0 6 -4 7 -10 4 -5 -3 -10 -1 -10 5 0 6 -4 8
-10 5 -5 -3 -10 -1 -10 5 0 6 -4 9 -9 5 -14 -8 -61 16 -54 28 4 6 0 8 -10 4
-10 -3 -17 -2 -17 3 0 5 -7 6 -17 3 -12 -5 -14 -3 -8 7 6 10 4 12 -8 7 -10 -3
-17 -2 -17 3 0 5 -7 6 -17 3 -11 -5 -14 -3 -8 6 6 10 2 11 -15 6 -16 -5 -20
-4 -15 5 5 9 1 10 -15 5 -16 -5 -20 -4 -15 5 5 9 1 10 -15 5 -16 -5 -20 -4
-15 5 5 9 1 10 -15 5 -16 -5 -20 -4 -15 5 5 9 2 10 -14 5 -13 -4 -21 -2 -21 5
0 7 -8 9 -21 5 -16 -5 -19 -4 -14 5 6 10 1 11 -19 6 -20 -5 -26 -4 -20 5 5 9
0 10 -20 5 -16 -4 -26 -2 -26 5 0 7 -9 9 -26 5 -19 -5 -24 -3 -18 5 5 9 -1 10
-24 6 -20 -4 -32 -2 -32 4 0 7 -13 9 -36 4 -27 -5 -34 -3 -28 6 5 9 -4 11 -40
6 -34 -5 -45 -4 -40 5 5 8 -12 9 -65 4 -48 -4 -70 -3 -66 4 4 6 -34 10 -109
10 -73 0 -116 -4 -116 -10z m1440 -465 c13 -14 21 -25 18 -25 -2 0 -15 11 -28
25 -13 14 -21 25 -18 25 2 0 15 -11 28 -25z m-1187 -436 c15 0 27 -4 27 -9 0
-5 7 -7 15 -4 8 4 15 1 15 -5 0 -6 7 -8 15 -5 8 4 15 1 15 -6 0 -6 5 -8 10 -5
6 3 10 1 10 -5 0 -6 5 -8 10 -5 6 3 10 1 10 -4 0 -6 3 -10 8 -10 16 3 28 -2
52 -22 14 -11 19 -17 11 -13 -9 5 -12 3 -7 -5 4 -6 11 -9 16 -6 15 9 89 -64
87 -86 -2 -23 -50 -62 -62 -51 -5 4 -5 2 -1 -5 7 -12 -27 -37 -37 -27 -3 3 -8
0 -13 -7 -5 -8 -3 -10 7 -5 8 4 3 -2 -11 -13 -52 -44 -78 -60 -85 -53 -5 4 -5
2 -1 -5 6 -11 -30 -39 -44 -35 -3 1 -5 -3 -5 -8 0 -13 -26 -30 -36 -24 -4 2
-11 -1 -15 -7 -5 -8 -2 -10 7 -5 8 5 -2 -5 -21 -20 -45 -38 -75 -38 -104 -3
-13 15 -27 25 -30 22 -3 -4 -6 -1 -6 6 0 7 -4 9 -10 6 -5 -3 -10 -2 -10 3 0 6
-9 8 -20 5 -11 -3 -20 -1 -20 4 0 4 -18 9 -40 9 -22 1 -40 -3 -40 -8 0 -6 -7
-8 -15 -4 -8 3 -15 1 -15 -5 0 -6 -7 -8 -16 -5 -8 3 -12 2 -9 -4 3 -6 1 -11
-4 -11 -6 -1 -15 -2 -20 -3 -5 0 -13 -5 -18 -10 -5 -5 -2 -6 7 -2 8 5 2 -3
-15 -17 -16 -14 -33 -23 -38 -20 -4 2 -7 1 -6 -4 4 -16 -24 -62 -34 -56 -6 3
-7 1 -3 -5 4 -6 1 -21 -6 -32 -11 -17 -11 -22 1 -29 8 -5 10 -14 6 -21 -5 -9
-4 -11 3 -6 7 4 13 2 13 -3 1 -6 2 -15 3 -20 0 -5 5 -13 10 -18 5 -5 6 -2 2 7
-5 9 -2 8 7 -2 8 -10 17 -15 21 -11 4 4 11 1 16 -7 7 -12 13 -12 33 -1 14 7
30 10 36 7 6 -4 11 -2 11 4 0 7 7 10 15 6 8 -3 15 -1 15 5 0 6 7 8 16 5 10 -4
13 -2 8 6 -5 8 -2 9 9 5 10 -3 17 -2 17 4 0 6 5 7 10 4 6 -3 10 -1 10 5 0 7 7
9 16 6 10 -4 13 -2 8 6 -5 8 -2 9 9 5 10 -4 17 -2 17 4 0 6 7 8 16 5 10 -4 13
-2 8 6 -5 8 -2 9 9 5 10 -4 17 -2 17 4 0 6 7 8 16 5 10 -4 13 -2 8 6 -5 8 -2
9 9 5 10 -4 17 -2 17 4 0 6 7 9 15 5 8 -3 15 -1 15 5 0 6 7 9 15 5 8 -3 15 -1
15 5 0 6 7 8 16 5 9 -4 13 -2 8 5 -4 8 1 9 16 4 17 -5 21 -4 15 6 -6 9 -2 11
13 7 12 -4 22 -2 22 4 0 6 7 8 15 4 8 -3 15 -1 15 5 0 6 9 8 20 4 12 -4 20 -2
20 5 0 7 8 9 20 5 12 -4 20 -2 20 5 0 7 8 10 20 7 11 -3 22 -1 25 3 7 11 215
9 215 -2 0 -5 9 -6 20 -3 11 4 20 2 20 -4 0 -6 7 -8 15 -5 8 4 15 1 15 -5 0
-6 6 -8 13 -5 17 6 139 -75 131 -87 -3 -5 0 -8 6 -7 13 3 104 -121 96 -129 -3
-3 2 -12 10 -20 8 -9 13 -22 10 -30 -4 -8 -1 -11 5 -7 8 4 9 -1 4 -15 -4 -13
-2 -21 5 -21 7 0 10 -7 6 -15 -3 -8 -1 -15 5 -15 7 0 9 -10 5 -26 -4 -15 -2
-32 4 -40 8 -8 10 -36 6 -76 -3 -35 -6 -75 -6 -90 -1 -16 -5 -28 -10 -28 -5 0
-7 -7 -4 -15 4 -8 1 -15 -5 -15 -6 0 -8 -7 -5 -15 4 -8 1 -15 -6 -15 -6 0 -8
-5 -5 -10 9 -15 -46 -111 -59 -103 -6 3 -8 3 -4 -2 11 -11 -11 -47 -24 -39 -7
4 -8 2 -4 -5 9 -14 -158 -186 -173 -177 -5 4 -13 1 -17 -5 -4 -8 -3 -9 4 -5 7
4 12 5 12 3 0 -8 -145 -100 -157 -100 -7 0 -13 -4 -13 -8 0 -12 -56 -40 -64
-32 -3 4 -6 1 -6 -6 0 -7 -4 -9 -10 -6 -5 3 -10 1 -10 -5 0 -6 -4 -8 -10 -5
-5 3 -10 1 -10 -5 0 -6 -4 -8 -10 -5 -5 3 -10 1 -10 -5 0 -7 -7 -9 -16 -6 -10
4 -13 2 -8 -6 5 -8 2 -9 -9 -5 -10 3 -17 2 -17 -3 0 -5 -7 -6 -17 -3 -11 5
-14 3 -8 -6 6 -10 2 -11 -15 -6 -17 5 -21 4 -15 -6 6 -9 2 -11 -13 -7 -12 4
-22 2 -22 -4 0 -6 -11 -7 -25 -4 -14 4 -25 2 -25 -3 0 -11 -149 -11 -156 1 -3
4 -16 5 -30 2 -14 -4 -24 -2 -24 5 0 6 -7 8 -15 5 -8 -4 -15 -1 -15 5 0 6 -7
8 -15 5 -8 -4 -15 -1 -15 6 0 6 -4 9 -9 5 -14 -8 -81 27 -74 38 3 6 1 7 -5 3
-13 -8 -55 17 -47 27 3 4 2 5 -1 2 -12 -8 -45 16 -38 27 4 6 3 8 -3 5 -15 -9
-93 75 -89 96 3 20 25 39 37 31 4 -2 11 1 15 7 5 8 2 10 -7 5 -8 -4 -3 2 11
13 52 44 78 60 85 53 5 -4 5 -2 1 5 -6 11 16 30 39 32 6 1 10 6 10 11 0 13 26
30 36 24 4 -2 11 1 15 7 5 8 3 9 -7 4 -23 -13 -8 0 66 59 39 31 75 56 81 56
14 0 61 -50 54 -57 -3 -4 4 -7 15 -9 11 -2 25 -10 31 -18 6 -9 14 -13 17 -9 4
3 7 1 7 -5 0 -6 7 -9 17 -5 11 5 14 3 8 -6 -5 -10 -2 -11 14 -6 11 3 21 2 21
-3 0 -5 20 -9 45 -9 25 0 45 4 45 9 0 5 10 6 21 3 16 -5 19 -4 14 5 -5 8 -3
11 6 8 8 -3 20 1 27 9 8 7 18 10 24 7 7 -4 8 -2 4 4 -7 11 7 17 29 12 6 -1 7
1 4 5 -8 7 53 72 64 67 4 -2 7 0 6 5 -3 20 2 34 11 28 6 -3 7 1 4 9 -3 9 -1
16 6 16 6 0 8 5 5 10 -4 6 -1 17 5 25 9 11 10 18 1 29 -6 7 -8 22 -4 31 4 13
3 16 -5 11 -11 -7 -17 7 -12 29 1 5 -2 7 -6 2 -9 -9 -45 23 -38 34 3 5 -3 6
-12 2 -12 -4 -15 -3 -10 5 5 8 2 10 -8 6 -9 -3 -16 -2 -16 3 0 12 -59 11 -78
-1 -7 -4 -19 -5 -27 -2 -8 3 -15 1 -15 -5 0 -6 -9 -8 -20 -4 -12 4 -20 2 -20
-5 0 -7 -7 -10 -15 -6 -8 3 -15 1 -15 -5 0 -6 -7 -8 -16 -5 -10 4 -13 2 -8 -6
5 -8 2 -9 -9 -5 -10 4 -17 2 -17 -4 0 -6 -7 -9 -15 -5 -8 3 -15 1 -15 -5 0 -6
-4 -7 -10 -4 -5 3 -10 1 -10 -5 0 -7 -7 -9 -16 -6 -10 4 -13 2 -8 -6 5 -8 2
-9 -9 -5 -10 4 -17 2 -17 -4 0 -6 -7 -9 -15 -5 -8 3 -15 1 -15 -5 0 -6 -7 -9
-15 -5 -8 3 -15 1 -15 -5 0 -6 -7 -9 -15 -5 -8 3 -15 1 -15 -5 0 -6 -7 -9 -15
-5 -8 3 -15 1 -15 -5 0 -6 -7 -9 -15 -5 -8 3 -15 0 -15 -5 0 -6 -9 -9 -20 -6
-11 3 -20 1 -20 -5 0 -6 -9 -8 -20 -5 -11 3 -23 1 -26 -5 -3 -5 -16 -7 -29 -4
-12 3 -25 2 -29 -2 -11 -10 -196 -10 -196 1 0 4 -9 5 -20 2 -12 -4 -20 -2 -20
5 0 7 -8 9 -21 5 -16 -5 -19 -4 -14 5 5 8 4 11 -3 6 -13 -8 -63 14 -56 25 3 5
-1 6 -9 3 -19 -7 -122 90 -112 107 5 7 4 10 -2 6 -13 -8 -56 70 -47 85 5 7 3
8 -6 3 -10 -6 -12 -4 -7 8 4 10 2 17 -4 17 -6 0 -9 7 -5 15 3 8 1 15 -5 15 -7
0 -9 10 -5 25 4 14 2 25 -4 25 -13 0 -13 127 0 135 6 3 7 17 4 31 -4 14 -2 24
5 24 6 0 8 7 5 15 -4 8 -1 15 5 15 6 0 8 7 5 15 -4 8 -1 15 6 15 6 0 8 5 5 10
-3 6 -1 10 5 10 6 0 8 5 5 10 -3 6 -1 10 4 10 6 0 10 3 10 8 -3 16 2 28 22 52
11 14 17 19 13 11 -5 -9 -3 -12 5 -7 6 4 9 11 6 16 -3 5 7 21 21 37 15 15 20
19 13 8 -13 -18 -13 -19 3 -6 10 7 16 17 13 21 -15 24 272 250 297 234 7 -4 8
-3 4 4 -6 11 6 16 27 13 4 0 7 3 7 9 0 13 58 42 70 35 6 -3 10 -1 10 5 0 6 5
8 10 5 6 -3 10 -1 10 5 0 7 7 9 16 6 10 -4 13 -2 8 6 -5 8 -2 9 9 5 10 -4 17
-2 17 4 0 6 7 9 15 6 8 -4 17 -2 21 4 3 6 12 8 20 5 7 -3 16 0 20 5 3 6 16 8
28 5 11 -3 28 -1 36 5 8 5 35 7 60 4 25 -3 57 -5 73 -6z m-1321 -808 c9 -14
14 -29 11 -34 -3 -6 -1 -7 5 -3 11 7 35 -26 27 -38 -3 -3 -2 -4 2 -1 8 7 43
-46 37 -56 -2 -4 1 -11 7 -15 8 -5 10 -2 5 7 -4 8 2 3 13 -11 21 -25 25 -36
21 -55 -1 -5 2 -7 6 -2 10 10 75 -83 67 -96 -3 -6 -1 -7 5 -3 11 7 35 -26 27
-38 -3 -3 -2 -4 2 -1 8 7 43 -46 37 -56 -2 -4 1 -11 7 -15 8 -4 9 -3 5 4 -4 7
-5 12 -3 12 7 0 59 -82 61 -96 1 -7 6 -17 11 -21 4 -4 5 -1 1 7 -4 8 2 4 13
-10 21 -25 25 -36 21 -55 -1 -5 2 -7 6 -2 10 10 75 -83 67 -96 -3 -6 -1 -7 5
-3 11 7 35 -26 27 -38 -3 -3 -2 -4 2 -1 8 6 84 -106 78 -116 -3 -4 2 -10 11
-13 9 -4 14 -13 10 -22 -3 -8 -2 -13 2 -10 12 7 44 -63 36 -76 -4 -6 -2 -8 3
-5 12 8 26 -20 17 -34 -3 -5 0 -9 6 -9 6 0 8 -4 5 -10 -3 -5 -1 -10 5 -10 7 0
9 -7 6 -16 -4 -10 -2 -13 6 -8 8 5 9 2 5 -9 -4 -10 -2 -17 4 -17 6 0 9 -9 6
-20 -3 -11 -2 -20 2 -20 4 0 7 -45 7 -100 0 -55 -4 -100 -9 -100 -5 0 -5 -9
-2 -20 4 -11 2 -20 -4 -20 -6 0 -8 -7 -5 -15 4 -8 1 -15 -5 -15 -6 0 -8 -7 -4
-17 5 -12 3 -14 -7 -8 -8 5 -11 4 -6 -3 9 -14 -14 -63 -27 -55 -6 3 -7 1 -3
-5 6 -10 -40 -92 -51 -92 -2 0 -1 5 3 12 4 7 3 8 -5 4 -6 -4 -9 -12 -6 -17 8
-12 -92 -112 -104 -104 -5 3 -13 0 -17 -6 -4 -8 -3 -9 4 -5 7 4 12 5 12 3 0
-12 -142 -97 -152 -91 -7 4 -8 3 -4 -4 6 -11 -6 -16 -26 -13 -5 0 -8 -3 -8 -9
0 -11 -60 -44 -67 -36 -3 3 -12 -2 -20 -10 -9 -8 -22 -13 -29 -10 -8 3 -14 1
-14 -5 0 -6 -7 -9 -15 -5 -8 3 -15 1 -15 -5 0 -6 -9 -8 -20 -4 -11 3 -20 2
-20 -3 0 -5 -45 -9 -100 -9 -55 0 -100 5 -100 9 0 5 -9 6 -20 3 -12 -4 -20 -2
-20 5 0 7 -8 9 -21 5 -14 -5 -19 -4 -15 4 5 7 1 9 -8 5 -9 -3 -16 -1 -16 6 0
6 -4 8 -10 5 -5 -3 -10 -1 -10 5 0 6 -4 8 -10 5 -5 -3 -10 -2 -10 3 0 5 -6 9
-13 9 -12 0 -97 52 -97 60 0 2 5 1 12 -3 7 -4 8 -3 4 5 -4 6 -12 9 -17 5 -13
-8 -119 103 -119 125 0 22 23 44 35 33 5 -4 5 -2 2 4 -7 13 261 266 274 258 4
-2 11 1 15 7 5 8 3 10 -7 4 -8 -5 -7 0 3 10 18 19 57 28 59 13 1 -4 2 -12 3
-17 0 -5 5 -13 10 -18 6 -5 6 -2 1 7 -5 8 11 -5 36 -30 24 -25 43 -49 41 -53
-1 -5 2 -6 7 -3 5 4 15 0 23 -7 7 -8 18 -12 25 -10 6 2 14 -1 18 -6 8 -14 45
-14 45 0 0 6 5 9 12 7 6 -2 20 4 30 14 10 10 24 16 30 12 6 -4 8 -3 4 4 -3 6
3 17 14 25 11 7 17 17 13 20 -3 4 -1 7 5 7 6 0 9 7 6 15 -4 8 -1 15 5 15 6 0
11 7 11 15 0 8 -5 15 -11 15 -6 0 -9 9 -6 20 3 11 1 20 -5 20 -6 0 -8 7 -4 15
3 8 1 15 -5 15 -6 0 -9 7 -5 15 3 8 1 15 -5 15 -6 0 -8 4 -5 9 3 5 -1 12 -10
15 -9 4 -14 13 -10 22 3 8 2 12 -4 9 -11 -7 -32 29 -22 40 4 5 2 5 -5 1 -14
-8 -36 27 -25 39 4 5 1 5 -5 1 -12 -7 -18 6 -13 29 1 6 -2 7 -6 3 -10 -11 -55
52 -47 66 3 6 2 8 -2 3 -10 -8 -77 82 -70 94 3 4 0 11 -6 15 -8 4 -9 3 -5 -4
4 -7 5 -12 3 -12 -7 0 -39 51 -41 66 -1 7 -6 17 -11 21 -4 4 -5 1 -1 -7 4 -8
-2 -4 -13 10 -20 24 -25 36 -22 53 1 5 -3 6 -8 2 -12 -7 -33 29 -23 40 4 5 1
5 -5 1 -12 -7 -18 5 -14 27 1 5 -3 6 -8 2 -12 -7 -33 29 -23 40 4 5 1 5 -5 1
-12 -7 -18 6 -13 29 1 5 -2 7 -6 2 -9 -9 -76 82 -69 94 3 4 0 11 -6 15 -8 4
-9 3 -5 -4 4 -7 5 -12 3 -12 -7 0 -39 51 -41 66 -1 7 -6 17 -11 21 -4 4 -5 2
-1 -4 4 -7 5 -13 3 -13 -7 0 -39 51 -41 66 -1 7 -6 17 -11 21 -4 4 -5 2 -1 -4
13 -24 -2 -13 -19 13 -14 21 -14 28 -3 42 11 13 11 15 -2 8 -8 -4 -4 2 10 13
24 20 36 25 53 22 5 -1 6 2 4 6 -6 9 96 84 118 87 8 1 18 6 22 11 4 4 2 5 -4
1 -7 -4 -13 -5 -13 -3 0 7 82 59 96 61 7 1 17 6 21 11 5 4 1 5 -7 0 -28 -15
-1 7 47 40 56 38 72 39 95 6z m-1206 -2173 l29 -33 -32 29 c-31 28 -38 36 -30
36 2 0 16 -15 33 -32z"/>
<path d="M18405 6940 c10 -11 20 -20 23 -20 3 0 -3 9 -13 20 -10 11 -20 20
-23 20 -3 0 3 -9 13 -20z"/>
<path d="M17355 6060 c10 -11 20 -20 23 -20 3 0 -3 9 -13 20 -10 11 -20 20
-23 20 -3 0 3 -9 13 -20z"/>
<path d="M18735 5658 l-50 -53 53 50 c28 27 52 51 52 52 0 8 -9 -1 -55 -49z"/>
<path d="M17645 5530 c10 -11 20 -20 23 -20 3 0 -3 9 -13 20 -10 11 -20 20
-23 20 -3 0 3 -9 13 -20z"/>
<path d="M16524 4858 l-29 -33 33 29 c30 28 37 36 29 36 -2 0 -16 -15 -33 -32z"/>
<path d="M16394 4738 l-19 -23 23 19 c21 18 27 26 19 26 -2 0 -12 -10 -23 -22z"/>
<path d="M16619 7603 c-13 -16 -12 -17 4 -4 9 7 17 15 17 17 0 8 -8 3 -21 -13z"/>
<path d="M19250 7606 c0 -2 8 -10 18 -17 15 -13 16 -12 3 4 -13 16 -21 21 -21
13z"/>
<path d="M15900 7055 c-24 -25 -42 -45 -39 -45 3 0 25 20 49 45 24 25 42 45
39 45 -3 0 -25 -20 -49 -45z"/>
<path d="M15719 6843 c-13 -16 -12 -17 4 -4 9 7 17 15 17 17 0 8 -8 3 -21 -13z"/>
<path d="M19120 4383 l-115 -118 118 115 c64 63 117 116 117 117 0 8 -13 -5
-120 -114z"/>
<path d="M18789 4093 c-13 -16 -12 -17 4 -4 16 13 21 21 13 21 -2 0 -10 -8
-17 -17z"/>
<path d="M18102 2970 c-185 -50 -356 -184 -439 -345 -48 -92 -86 -217 -110
-355 -21 -121 -24 -486 -5 -613 36 -243 107 -419 219 -537 85 -91 156 -137
278 -180 97 -34 104 -35 250 -35 174 0 234 12 365 77 124 60 221 159 283 288
87 181 121 383 121 710 0 235 -13 343 -60 492 -43 138 -88 213 -184 308 -92
93 -170 141 -295 180 -102 33 -321 38 -423 10z"/>
<path d="M1450 7104 l0 -366 293 5 c269 4 301 6 411 30 67 15 137 37 161 51
144 85 202 278 131 433 -55 120 -147 178 -321 203 -38 5 -206 10 -372 10
l-303 0 0 -366z"/>
<path d="M1504 3155 c-158 -34 -263 -138 -264 -258 0 -63 22 -108 77 -156 72
-64 135 -84 578 -186 448 -103 771 -212 967 -325 48 -27 74 -37 78 -30 4 7 10
50 14 96 7 91 47 308 71 388 8 27 14 50 13 51 -2 2 -181 -8 -398 -21 -217 -13
-409 -23 -426 -24 -31 0 -32 2 -49 70 -40 162 -137 297 -255 352 -113 53 -279
71 -406 43z"/>
<path d="M13085 2984 c-119 -26 -245 -94 -336 -182 -132 -125 -196 -261 -240
-508 -29 -158 -31 -503 -5 -667 64 -407 231 -624 543 -709 61 -16 107 -21 213
-21 158 0 249 20 370 80 105 52 222 170 272 273 79 161 116 353 125 645 10
321 -24 533 -113 715 -39 80 -61 109 -134 181 -140 139 -280 196 -505 204 -86
4 -140 0 -190 -11z"/>
</g>
</svg>
